<?xml version="1.0" encoding="UTF-8"?>
<svg id="a" data-name="Capa 1" xmlns="http://www.w3.org/2000/svg" viewBox="0 0 316.47 296.36">
  <path fill="currentColor" d="M0,131.04C3.12,77.15,33.06,29.1,93.54,1.18c3.17-1.46,6.25-1.96,8.96,.84,2.7,2.79,2.02,5.79,.59,8.98-12.14,26.99-15.84,55.21-9.85,84.09,10.36,49.94,39.37,85.17,86.78,104.31,33.85,13.67,68.15,13.23,102.26,.14,1.72-.66,3.59-1.34,5.39-1.33,4.92,.03,7.63,5.03,5.38,9.78-5.62,11.89-12.48,23.04-21.05,33.04-31.1,36.31-70.69,55.76-118.41,55.32-55.62-.51-99.38-24.88-129.89-71.63C7.56,200.01-.11,172.49,0,131.04ZM84.65,20.68C41.87,43.31,5.31,97.84,14.56,162.83c8.57,60.25,56.38,111.43,122.51,119.6,58.59,7.24,111.89-24.45,135.53-65.28-58.36,13.47-110.18,1.21-151.99-42.28-41.94-43.62-52.08-95.97-35.96-154.19Z"/>
  <path fill="currentColor" d="M295.06,53.14c-6.49,0-11.8,.04-17.11-.02-2.99-.03-6.06,.14-8.93-.51-1.56-.35-3.76-2.16-3.87-3.47-.15-1.7,1.17-3.85,2.48-5.24,.83-.88,2.77-.96,4.22-.97,10.98-.07,21.95-.03,32.93-.02,.37,0,.75-.01,1.12,.03,2.88,.32,5.96,.59,7.21,3.73,1.25,3.14-.16,5.84-2.26,8.19-8.73,9.76-17.47,19.5-26.2,29.25-.71,.8-1.35,1.66-2.48,3.07,9.1,0,17.53-.03,25.95,.02,1.6,0,3.25,.12,4.79,.53,2.49,.65,3.56,2.47,3.56,5.04,0,2.61-1.21,4.28-3.69,4.94-1.19,.31-2.45,.43-3.68,.44-12.22,.03-24.45,.03-36.67,0-1.24,0-2.51-.04-3.71-.3-5.66-1.22-7.51-6.33-3.71-10.67,6.98-7.98,14.12-15.8,21.16-23.72,2.77-3.11,5.44-6.31,8.9-10.33Z"/>
  <path fill="currentColor" d="M154.12,90.63c9.39,0,17.6-.01,25.82,.01,1.49,0,3.02,0,4.47,.3,2.62,.55,4.11,2.26,4.2,5,.1,2.93-1.48,4.68-4.18,5.42-1.06,.29-2.23,.27-3.34,.27-12.48,.02-24.96,.14-37.43-.11-2.4-.05-5.14-1.09-7.05-2.56-2.41-1.86-1.96-5.41,.62-8.3,8.13-9.12,16.36-18.16,24.52-27.26,1.65-1.84,3.19-3.77,5.55-6.58-2.79,0-4.56,.02-6.34,0-6.24-.07-12.47-.11-18.71-.24-2.93-.06-5.15-1.02-5.03-4.58,.11-3.39,2.13-4.91,5.18-5.29,1.72-.21,3.49-.1,5.23-.1,8.98,0,17.97,0,26.95,0,1,0,2.11-.27,2.97,.08,2.53,1.02,5.84,1.66,7.22,3.61,1.96,2.78,.11,5.96-2.09,8.41-7.07,7.9-14.16,15.77-21.24,23.66-2.22,2.48-4.42,4.98-7.32,8.26Z"/>
  <path fill="currentColor" d="M229.74,97.54c-2.76,0-4.58,0-6.4,0-4.24-.02-8.49,.1-12.72-.11-2.36-.12-5.03-.51-4.88-3.86,.14-3.12,2.29-4.17,5.09-4.3,.25-.01,.5-.02,.75-.02,8.61,0,17.22-.2,25.82,.14,2.31,.09,5.35,1.23,6.64,2.95,1.75,2.32-.24,4.88-2.06,6.91-6.5,7.23-12.98,14.48-19.47,21.73-.82,.92-1.6,1.87-2.75,3.23,1.37,.16,2.27,.36,3.18,.36,6.24,.03,12.47-.03,18.71,.05,2.96,.04,5.21,1.29,5.17,4.6-.04,3.19-2.37,4.23-5.1,4.25-10.35,.07-20.71,.18-31.06-.1-1.9-.05-4.81-1.48-5.35-2.96-.63-1.73,.21-4.73,1.49-6.29,6-7.32,12.38-14.34,18.61-21.48,1.23-1.4,2.41-2.84,4.33-5.11Z"/>
</svg>
